<svg width="62" height="16" viewBox="0 0 62 16" fill="none" xmlns="http://www.w3.org/2000/svg">
<path d="M35.7068 9.35556C35.7068 11.6222 34.9512 13.2963 33.4401 14.3778C31.9438 15.4593 29.9438 16 27.4401 16C24.9364 16 22.929 15.4593 21.4179 14.3778C19.9216 13.2963 19.1735 11.6074 19.1735 9.31111V6.68889C19.1735 5.17778 19.529 3.92593 20.2401 2.93333C20.9661 1.92593 21.9512 1.18519 23.1957 0.711111C24.4401 0.237037 25.8549 0 27.4401 0C29.0253 0 30.4327 0.237037 31.6623 0.711111C32.9068 1.18519 33.892 1.91852 34.6179 2.91111C35.3438 3.9037 35.7068 5.14815 35.7068 6.64444V9.35556ZM25.1735 9.77778C25.1735 10.3852 25.3735 10.8519 25.7735 11.1778C26.1883 11.5037 26.7438 11.6667 27.4401 11.6667C28.1364 11.6667 28.6846 11.5037 29.0846 11.1778C29.4994 10.837 29.7068 10.363 29.7068 9.75556V6.24444C29.7068 5.63704 29.4994 5.17037 29.0846 4.84444C28.6846 4.5037 28.1364 4.33333 27.4401 4.33333C26.7438 4.33333 26.1883 4.4963 25.7735 4.82222C25.3735 5.14815 25.1735 5.61482 25.1735 6.22222V9.77778Z" fill="url(#paint0_linear_53_9736)"/>
<path d="M16.2265 0.222168C16.3895 0.222168 16.5302 0.281427 16.6488 0.399946C16.7673 0.518465 16.8265 0.659206 16.8265 0.822168V4.39995C16.8265 4.56291 16.7673 4.70365 16.6488 4.82217C16.5302 4.94069 16.3895 4.99995 16.2265 4.99995H11.4488V15.1777C11.4488 15.3407 11.3895 15.4814 11.271 15.5999C11.1525 15.7185 11.0117 15.7777 10.8488 15.7777H6.27099C6.10803 15.7777 5.96729 15.7185 5.84877 15.5999C5.73025 15.4814 5.67099 15.3407 5.67099 15.1777V4.99995H0.893213C0.73025 4.99995 0.589509 4.94069 0.470991 4.82217C0.352472 4.70365 0.293213 4.56291 0.293213 4.39995V0.822168C0.293213 0.659206 0.352472 0.518465 0.470991 0.399946C0.589509 0.281427 0.73025 0.222168 0.893213 0.222168H16.2265Z" fill="url(#paint1_linear_53_9736)"/>
<rect x="40.7068" y="8" width="8" height="8" fill="#993CD2"/>
<rect x="53.7068" y="8" width="8" height="8" fill="#D23CCC"/>
<defs>
<linearGradient id="paint0_linear_53_9736" x1="19.1735" y1="-8.57143e-05" x2="37.7756" y2="2.94866" gradientUnits="userSpaceOnUse">
<stop stop-color="#993CD2"/>
<stop offset="1" stop-color="#C33CD2"/>
</linearGradient>
<linearGradient id="paint1_linear_53_9736" x1="0.293213" y1="0.222085" x2="18.869" y2="3.25078" gradientUnits="userSpaceOnUse">
<stop stop-color="#993CD2"/>
<stop offset="1" stop-color="#C33CD2"/>
</linearGradient>
</defs>
</svg>
